<svg xmlns="http://www.w3.org/2000/svg" version="1.1" xlink="http://www.w3.org/1999/xlink" xmlns:svgjs="http://svgjs.com/svgjs" width="100%" height="100%" viewBox="4.800000190734863 -39.810001373291016 469.1500244140625 40.61000061035156"><g fill="#ffffff"><path d="M12.18 -38.9L4.8 -38.9L4.8 0L12.18 0Z M60.35 -38.9L52.91 -38.9L52.91 -12.93L34.89 -38.9L27.51 -38.9L27.51 0L34.89 0L34.89 -26.03L52.91 0L60.35 0Z M86.31 0L92.61 0L107.76 -38.9L100.27 -38.9L89.57 -10.12L78.53 -38.9L71.21 -37.87Z M145.86 0L144.66 -5.78L126.01 -5.78L126.01 -16.7L137.62 -16.7L136.42 -22.59L126.01 -22.59L126.01 -33.06L143 -33.06L141.85 -38.9L118.63 -38.9L118.63 0Z M157.53 -8.58L155.87 -2.57C156.75 -1.81 158.47 -1.07 161.05 -0.34C163.62 0.38 165.73 0.74 167.37 0.74C172.06 0.74 175.64 -0.27 178.12 -2.29C180.6 -4.31 181.86 -6.86 181.89 -9.95C181.93 -13.27 180.68 -15.88 178.15 -17.79C175.61 -19.7 172.95 -21.35 170.17 -22.77C168.19 -23.83 166.47 -24.84 165.02 -25.8C163.57 -26.75 162.85 -27.95 162.85 -29.4C162.85 -30.74 163.41 -31.73 164.53 -32.37C165.66 -33.02 167.04 -33.35 168.68 -33.35C170.36 -33.35 171.88 -33.09 173.26 -32.58C174.63 -32.06 175.91 -31.52 177.09 -30.94L179.55 -36.89C178.06 -37.62 176.35 -38.29 174.4 -38.9C172.46 -39.51 170.51 -39.81 168.57 -39.81C164.3 -39.81 161.01 -38.81 158.7 -36.81C156.39 -34.81 155.22 -32.34 155.18 -29.4C155.14 -26.01 156.38 -23.36 158.9 -21.45C161.42 -19.54 164.05 -17.88 166.79 -16.47C168.66 -15.52 170.37 -14.54 171.91 -13.53C173.46 -12.52 174.23 -11.36 174.23 -10.07C174.23 -8.69 173.65 -7.65 172.48 -6.92C171.32 -6.2 169.58 -5.83 167.25 -5.83C165.61 -5.83 163.88 -6.14 162.05 -6.75C160.22 -7.36 158.71 -7.97 157.53 -8.58Z M190.36 -38.9L190.36 -33.06L202.2 -33.06L202.2 0L209.69 0L209.69 -33.06L223.02 -33.06L221.82 -38.9Z M232.29 -19.28C232.29 -13.71 233.76 -8.97 236.69 -5.06C239.63 -1.15 244.13 0.8 250.19 0.8C255.87 0.69 260.29 -1.25 263.43 -5C266.58 -8.76 268.15 -13.65 268.15 -19.68C268.15 -25.24 266.68 -29.99 263.75 -33.92C260.81 -37.85 256.29 -39.81 250.19 -39.81C244.51 -39.7 240.1 -37.74 236.98 -33.95C233.85 -30.15 232.29 -25.26 232.29 -19.28ZM240.01 -19.33C240.01 -23.68 240.96 -27.13 242.87 -29.69C244.78 -32.24 247.25 -33.52 250.3 -33.52C253.77 -33.52 256.33 -32.22 257.97 -29.63C259.61 -27.04 260.43 -23.72 260.43 -19.68C260.43 -14.83 259.49 -11.25 257.63 -8.92C255.76 -6.6 253.26 -5.43 250.13 -5.43C246.66 -5.43 244.11 -6.73 242.47 -9.32C240.83 -11.92 240.01 -15.25 240.01 -19.33Z M293.89 -32.72C296.33 -32.72 298.24 -32.24 299.61 -31.29C300.98 -30.33 301.67 -28.77 301.67 -26.6C301.67 -24.54 300.95 -23.06 299.5 -22.16C298.05 -21.27 296.22 -20.82 294.01 -20.82L289.31 -20.82L289.31 -32.72ZM304.53 0L312.42 0L302.87 -16.7C304.82 -17.66 306.41 -19 307.65 -20.73C308.89 -22.47 309.51 -24.54 309.51 -26.94C309.51 -31.02 308 -34.03 304.99 -35.98C301.97 -37.92 298.35 -38.9 294.12 -38.9L281.94 -38.9L281.94 0L289.31 0L289.31 -14.76L293.6 -14.76C294.06 -14.76 294.52 -14.77 294.98 -14.79C295.44 -14.81 295.87 -14.83 296.29 -14.87Z M338.05 -38.9L323.52 -38.9L323.52 0L339.48 0C343.64 0 346.96 -1.01 349.46 -3.03C351.96 -5.05 353.21 -7.86 353.21 -11.44C353.21 -13.84 352.64 -15.83 351.52 -17.39C350.39 -18.95 348.95 -20.19 347.2 -21.11C348.27 -21.95 349.14 -22.95 349.8 -24.11C350.47 -25.27 350.8 -26.58 350.8 -28.03C350.8 -31.96 349.62 -34.75 347.26 -36.41C344.89 -38.07 341.82 -38.9 338.05 -38.9ZM336.96 -32.72C338.83 -32.72 340.3 -32.37 341.37 -31.69C342.43 -31 342.97 -29.74 342.97 -27.91C342.97 -26.24 342.39 -25.01 341.22 -24.22C340.06 -23.44 338.45 -23.05 336.39 -23.05L330.9 -23.05L330.9 -32.72ZM339.42 -17.05C341.25 -17.05 342.72 -16.56 343.83 -15.59C344.93 -14.61 345.48 -13.21 345.48 -11.38C345.48 -9.7 344.88 -8.41 343.68 -7.49C342.48 -6.58 340.89 -6.12 338.91 -6.12L330.9 -6.12L330.9 -17.05Z M380.15 -28.71L385.35 -15.16L375.06 -15.16ZM383.47 -38.9L377.17 -38.9L362.02 0L369.45 0L372.88 -9.15L387.64 -9.15L391.13 0L398.57 -1.03Z M409.43 -8.58L407.77 -2.57C408.65 -1.81 410.38 -1.07 412.95 -0.34C415.53 0.38 417.63 0.74 419.27 0.74C423.96 0.74 427.55 -0.27 430.03 -2.29C432.5 -4.31 433.76 -6.86 433.8 -9.95C433.84 -13.27 432.59 -15.88 430.05 -17.79C427.52 -19.7 424.86 -21.35 422.07 -22.77C420.09 -23.83 418.38 -24.84 416.93 -25.8C415.48 -26.75 414.75 -27.95 414.75 -29.4C414.75 -30.74 415.32 -31.73 416.44 -32.37C417.57 -33.02 418.95 -33.35 420.59 -33.35C422.27 -33.35 423.79 -33.09 425.16 -32.58C426.54 -32.06 427.81 -31.52 429 -30.94L431.46 -36.89C429.97 -37.62 428.25 -38.29 426.31 -38.9C424.36 -39.51 422.42 -39.81 420.47 -39.81C416.2 -39.81 412.91 -38.81 410.61 -36.81C408.3 -34.81 407.13 -32.34 407.09 -29.4C407.05 -26.01 408.29 -23.36 410.81 -21.45C413.32 -19.54 415.95 -17.88 418.7 -16.47C420.57 -15.52 422.27 -14.54 423.82 -13.53C425.36 -12.52 426.14 -11.36 426.14 -10.07C426.14 -8.69 425.55 -7.65 424.39 -6.92C423.23 -6.2 421.48 -5.83 419.16 -5.83C417.52 -5.83 415.78 -6.14 413.95 -6.75C412.12 -7.36 410.62 -7.97 409.43 -8.58Z M473.95 0L472.75 -5.78L454.11 -5.78L454.11 -16.7L465.72 -16.7L464.52 -22.59L454.11 -22.59L454.11 -33.06L471.09 -33.06L469.95 -38.9L446.73 -38.9L446.73 0Z"></path></g></svg>